<?xml version="1.0" encoding="UTF-8"?>
<!DOCTYPE svg PUBLIC "-//W3C//DTD SVG 1.1//EN" "http://www.w3.org/Graphics/SVG/1.1/DTD/svg11.dtd">
<!-- Creator: CorelDRAW 2017 -->
<svg xmlns="http://www.w3.org/2000/svg" xml:space="preserve" width="4.72441in" height="2.3622in" version="1.1" style="shape-rendering:geometricPrecision; text-rendering:geometricPrecision; image-rendering:optimizeQuality; fill-rule:evenodd; clip-rule:evenodd"
viewBox="0 0 4724.41 2362.2"
 xmlns:xlink="http://www.w3.org/1999/xlink">
 <defs>
  <style type="text/css">
   <![CDATA[
    .fil8 {fill:#E05438}
    .fil7 {fill:#8B3031}
    .fil9 {fill:#8D3B32}
    .fil1 {fill:#FEFEFE;fill-rule:nonzero}
    .fil3 {fill:#FFCC29;fill-rule:nonzero}
    .fil4 {fill:#F58634;fill-rule:nonzero}
    .fil2 {fill:#CB3438;fill-rule:nonzero}
    .fil5 {fill:#A8CF45;fill-rule:nonzero}
    .fil0 {fill:#2A5C42;fill-rule:nonzero}
    .fil6 {fill:#201E1E;fill-rule:nonzero}
   ]]>
  </style>
 </defs>
<symbol id="Symbol22" viewBox="1649.14 1273.77 204.24 34.91">
 <path class="fil0" d="M1853.37 1304.8c0,0 -13.01,4.02 -23.03,-2.98 -9.98,-7.03 -32.04,-22.03 -54.07,-20.03 -22.02,1.98 -88.08,8 -127.14,-8.02 0,0 43.06,17.03 67.09,17.03 24.03,0 35.04,-7.03 71.07,3.99 36.06,11.01 33.07,19 66.08,10.01z"/>
</symbol>
<symbol id="Symbol5" viewBox="2271 1546.84 178.94 603.36">
 <path class="fil0" d="M2449.94 2150.2c0,0 -51.43,-35.6 -83.08,-59.35 -31.67,-23.74 -98.92,-73.21 -73.19,-164.19 25.72,-90.99 73.19,-314.54 85.04,-379.82 0,0 -49.44,182 -65.26,237.38 -15.85,55.41 -69.25,207.72 -25.72,249.28 43.51,41.54 116.74,98.92 162.22,116.71z"/>
</symbol>
<symbol id="Symbol25" viewBox="2367.16 1687.13 457 371.92">
 <path class="fil0" d="M2824.16 2059.05c0,0 -77.18,-29.68 -91.01,-59.35 -13.86,-29.68 -33.64,-122.65 -63.31,-152.35 -29.68,-29.67 -271.03,-49.44 -302.68,-160.22 0,0 15.83,35.58 73.21,59.35 57.38,23.74 138.49,37.57 195.85,61.29 57.39,23.78 87.03,104.89 108.81,184 9.89,21.76 57.39,57.39 79.14,67.28z"/>
</symbol>
<symbol id="Symbol19" viewBox="1929.46 1305.8 235.26 245.4">
 <path class="fil0" d="M1929.46 1549.07c0,0 18.02,-10.98 36.04,-38.01 18.03,-27.06 21.03,-120.17 51.06,-144.17 30.04,-24.04 126.14,-37.07 148.17,-61.09 0,0 -8,26.03 -43.04,35.06 -35.03,9 -74.08,17 -89.11,36.06 -15.02,19.01 -9.02,21 -6,38.03 3.01,17.02 -16.03,13.02 -31.03,43.03 -15.03,30.06 -45.06,96.13 -64.07,93.14l-2.02 -2.03z"/>
</symbol>
<symbol id="Symbol23" viewBox="2618.94 1872.11 197.22 192.72">
 <path class="fil1" d="M2618.94 1872.11c0,0 11.33,36.31 24.93,63.49 13.58,27.21 83.9,117.9 172.29,129.24 0,0 -63.49,-24.93 -83.89,-49.88 -20.4,-24.94 -45.33,-52.15 -61.19,-68.01 -15.88,-15.87 -22.68,-65.75 -52.14,-74.83z"/>
</symbol>
<symbol id="Symbol3" viewBox="2287.56 2048.01 188.15 124.71">
 <path class="fil1" d="M2475.72 2172.72c0,0 -49.89,-22.68 -70.29,-34.02 -20.39,-11.35 -108.81,-68.01 -117.86,-90.69 0,0 6.78,29.5 29.46,45.35 22.68,15.89 86.15,61.24 158.69,79.36z"/>
</symbol>
<symbol id="Symbol26" viewBox="2703.47 1524.02 354.1 139.37">
 <path class="fil0" d="M3057.57 1663.39c0,0 -57.37,-45.52 -67.26,-67.26 -9.87,-21.76 -33.61,-53.42 -73.18,-57.38 -39.57,-3.96 -178.04,37.59 -213.65,-13.86 0,0 31.65,21.76 71.24,15.83 39.56,-5.93 124.63,-25.72 162.21,-11.87 37.58,13.86 85.07,116.75 120.65,134.54z"/>
</symbol>
<symbol id="Symbol24" viewBox="2428.49 1788.25 215.39 179.11">
 <path class="fil1" d="M2428.49 1788.25c0,0 24.93,24.93 52.14,34 27.24,9.07 88.43,20.42 106.58,52.15 18.11,31.74 22.68,72.54 56.67,92.96 0,0 -22.68,-18.15 -22.68,-38.54 0,-20.41 -11.3,-47.64 -31.74,-65.75 -20.4,-18.14 -138.29,-63.48 -160.97,-74.82z"/>
</symbol>
<symbol id="Symbol1" viewBox="1817.54 1103.78 538.63 270.46">
 <path class="fil0" d="M1817.54 1111.96c0,0 60.06,-19.03 104.11,0.98 44.08,20.04 116.15,57.07 149.18,82.1 33.03,25.04 195.22,156.18 285.33,179.21 0,0 -81.08,-3.98 -135.14,-47.06 -30.65,-24.4 -106.13,-81.1 -137.15,-105.11 -31.07,-24.04 -178.22,-132.17 -266.33,-110.13z"/>
</symbol>
<symbol id="Symbol2" viewBox="1815.06 1120.26 557.28 286.26">
 <path class="fil1" d="M1815.06 1120.64c0,0 35.79,-4.85 90.94,20.32 55.14,25.14 214.79,161.57 282.53,201.22 67.71,39.68 101.58,67.74 183.81,53.22 0,0 -71.92,16.24 -126.09,9.46 -54.17,-6.76 -94.78,-38.06 -192.71,-131.5 -87.2,-83.17 -166.89,-151.76 -238.48,-152.72z"/>
</symbol>
<symbol id="Symbol4" viewBox="1863.14 1376.4 278.64 200.26">
 <path class="fil1" d="M1863.14 1576.67c0,0 53.22,-6.76 79.35,-19.35 26.13,-12.58 114.15,-72.56 199.29,-180.92 0,0 -27.1,31.92 -43.53,35.78 -16.46,3.89 -31.93,-1.91 -48.37,28.07 -16.46,29.99 -55.14,76.42 -68.71,84.15 -13.54,7.76 -28.06,31.94 -118.03,52.26z"/>
</symbol>
<symbol id="Symbol20" viewBox="1686.11 1246.83 164.47 44.43">
 <path class="fil1" d="M1686.11 1271.91c0,0 17.39,-0.97 40.61,-10.67 23.25,-9.65 57.08,-19.32 80.32,-11.61 23.19,7.75 23.19,32.92 43.54,41.63 0,0 -21.32,-6.78 -32.9,-17.42 -11.61,-10.64 -30.02,-17.4 -51.28,-13.54 -21.29,3.86 -62.87,21.28 -80.29,11.61z"/>
</symbol>
<symbol id="Symbol21" viewBox="1651.25 1279.63 217.52 46.96">
 <path class="fil1" d="M1651.25 1279.63c0,0 41.64,21.31 65.81,27.1 24.18,5.8 25.15,6.76 47.39,4.85 22.28,-1.96 42.57,4.83 58.06,12.57 14.76,7.37 33.04,-3.71 43.08,-9.8 0.52,-0.29 0.97,-0.57 1.43,-0.86 9.65,-5.79 -23.22,9.71 -31.91,5.82 -8.72,-3.87 -41.63,-21.29 -56.14,-18.39 -14.51,2.9 -32.89,7.74 -45.46,4.85 -12.57,-2.89 -71.58,-25.17 -82.25,-26.14z"/>
</symbol>
 <g id="Layer_x0020_1">
  <metadata id="CorelCorpID_0Corel-Layer"/>
  <path class="fil2" d="M393.7 1691.77l0 -1298.06 457.2 0 403.04 679.29c-5.44,-30.26 -9.08,-63.54 -11.2,-100.15 -2.12,-36.91 -3.02,-84.72 -3.02,-143.72l0 -435.41 450.24 0 0 1298.06 -461.13 0 -399.1 -673.84c4.84,29.05 8.17,60.21 10.59,93.5 2.42,33.28 3.63,70.8 3.63,112.26l0 468.09 -450.24 0z"/>
  <path class="fil3" d="M1987.2 1219.75l194.26 0 -39.94 -147.06c-19.37,-74.43 -32.68,-131.92 -39.94,-172.17 -6.96,-39.94 -11.5,-77.76 -13.31,-113.17l-7.87 0c-1.81,35.4 -6.05,73.22 -13.31,113.17 -6.96,40.24 -20.28,97.73 -39.94,172.17l-39.94 147.06zm-618.78 472.02l462.95 -1298.06 519.22 0 453.87 1298.06 -501.68 0 -41.45 -163.39 -351.9 0 -39.94 163.39 -501.07 0z"/>
  <polygon class="fil4" points="2579.64,1691.77 2579.64,818.53 2320.03,818.53 2320.03,393.71 3305.83,393.71 3305.83,818.53 3046.22,818.53 3046.22,1691.77 "/>
  <path class="fil5" d="M3645.99 1397.36c-12.41,-26.63 -21.79,-48.11 -27.84,-64.15 -6.35,-16.34 -10.89,-30.87 -13.92,-43.87 -2.42,12.41 -6.35,26.02 -12.41,41.15 -5.75,15.13 -16.04,37.22 -30.86,66.87l-147.36 294.41 -533.45 0 460.83 -691.7 -406.37 -606.37 532.24 0 95.92 211.8c0.91,2.42 2.72,6.35 5.14,11.5 17.85,40.24 29.96,72.31 36.31,95.92 4.24,-15.43 9.38,-31.17 15.73,-47.51 6.05,-16.34 14.22,-36.31 24.21,-59.91l98.34 -211.8 530.12 0 -405.15 606.37 461.43 691.7 -534.06 0 -148.87 -294.41z"/>
  <path class="fil6" d="M396.95 1961.62l0 -244.06 165.76 195.91 0 -186.08 19.98 0 0 241.11 -165.76 -196.33 0 189.45 -19.98 0zm444.21 -69.4c0,18.35 4.14,32.49 12.39,42.37 8.25,9.94 20.1,14.91 35.44,14.91 14.91,0 26.7,-5.41 35.27,-16.21 8.58,-10.87 12.89,-25.77 12.89,-44.72 0,-17.41 -4.26,-31.07 -12.83,-41.05 -8.51,-10 -20.2,-14.96 -35,-14.96 -14.85,0 -26.54,5.3 -35.21,15.94 -8.63,10.59 -12.94,25.17 -12.94,43.73zm95.65 69.4l0 -25.88c-4.7,10.43 -11.3,18.4 -19.77,23.86 -8.46,5.51 -18.45,8.24 -29.96,8.24 -20.43,0 -36.8,-7 -49.25,-20.96 -12.39,-13.93 -18.61,-32.38 -18.61,-55.31 0,-22.66 6.11,-41.22 18.4,-55.53 12.28,-14.35 28.12,-21.51 47.49,-21.51 12.07,0 22.5,2.62 31.29,7.91 8.84,5.24 15.61,13 20.42,23.21l0 -25.88 19.66 0 0 141.85 -19.66 0zm270.53 -125.14l-26.21 0 0 -16.7 26.21 0 0 -58.31 19.33 0 0 58.31 28.49 0 0 16.7 -28.49 0 0 125.14 -19.33 0 0 -125.14zm290.51 -16.7l0 70.87c0,21.51 3.06,36.74 9.17,45.59 6.17,8.84 16.54,13.26 31.13,13.26 14.51,0 24.89,-4.48 31.17,-13.44 6.28,-8.95 9.44,-24.12 9.44,-45.42l0 -70.87 19.66 0 0 80.91c0,22.06 -5.08,38.76 -15.24,50.13 -10.09,11.35 -25,17.03 -44.66,17.03 -19.7,0 -34.72,-5.68 -44.98,-17.03 -10.21,-11.37 -15.35,-28.07 -15.35,-50.13l0 -80.91 19.66 0zm366.46 28.49c7.25,-12.28 14.35,-20.96 21.34,-26.09 6.99,-5.09 15.13,-7.65 24.41,-7.65 2.79,0 5.56,0.27 8.4,0.82 2.84,0.49 5.63,1.25 8.41,2.18l-6.39 18.56c-2.13,-0.65 -4.37,-1.14 -6.65,-1.58 -2.3,-0.44 -4.48,-0.65 -6.67,-0.65 -11.79,0 -21.94,5.56 -30.31,16.65 -8.35,11.09 -12.55,24.84 -12.55,41.38l0 69.73 -19.66 0 0 -141.85 19.66 0 0 28.49zm280.35 113.35l0 -234.23 115.97 0 0 19.99 -94.67 0 0 73.38 94.67 0 0 19.98 -94.67 0 0 100.9 94.67 0 0 19.98 -115.97 0zm337.79 -141.85l24.46 0 34.67 52.14 34.73 -52.14 23.96 0 -47.77 68.13 52.74 73.71 -24.3 0 -39.63 -57.28 -39.2 57.28 -24.63 0 53.07 -73.71 -48.1 -68.13zm348.44 16.7l-26.2 0 0 -16.7 26.2 0 0 -58.31 19.33 0 0 58.31 28.49 0 0 16.7 -28.49 0 0 125.14 -19.33 0 0 -125.14zm290.51 11.79c7.25,-12.28 14.35,-20.96 21.34,-26.09 7,-5.09 15.13,-7.65 24.41,-7.65 2.79,0 5.56,0.27 8.41,0.82 2.84,0.49 5.63,1.25 8.41,2.18l-6.39 18.56c-2.12,-0.65 -4.37,-1.14 -6.65,-1.58 -2.3,-0.44 -4.49,-0.65 -6.67,-0.65 -11.79,0 -21.94,5.56 -30.31,16.65 -8.35,11.09 -12.55,24.84 -12.55,41.38l0 69.73 -19.66 0 0 -141.85 19.66 0 0 28.49zm376.01 26.21c-0.98,-12.98 -5.3,-23.09 -12.93,-30.24 -7.7,-7.15 -18.08,-10.7 -31.24,-10.7 -11.95,0 -21.94,3.72 -29.98,11.19 -8.07,7.48 -12.72,17.37 -14.03,29.75l88.18 0zm23.26 16.71l-112.69 0c0.54,18.35 5.13,32.81 13.76,43.24 8.63,10.49 20.2,15.72 34.73,15.72 10.43,0 19.6,-2.83 27.46,-8.46 7.93,-5.68 14.47,-14.19 19.72,-25.61l18.02 9.94c-7.26,14.35 -16.16,24.89 -26.65,31.66 -10.48,6.77 -23.37,10.16 -38.59,10.16 -20.8,0 -37.63,-6.93 -50.45,-20.86 -12.83,-13.93 -19.28,-32.15 -19.28,-54.76 0,-23.26 6.39,-41.99 19.11,-56.29 12.73,-14.24 29.38,-21.4 49.96,-21.4 19.61,0 35.33,6.55 47.19,19.72 11.84,13.16 17.74,30.74 17.74,52.63l0 4.31zm254.48 70.43l-19.66 0 0 -141.85 19.66 0 0 22.16c4.69,-8.9 10.86,-15.72 18.56,-20.37 7.7,-4.69 16.54,-7.04 26.59,-7.04 10.37,0 19.16,2.35 26.47,7.1 7.31,4.74 12.94,11.69 16.93,20.8 5.63,-9.33 12.56,-16.32 20.75,-20.96 8.24,-4.63 17.74,-6.93 28.67,-6.93 15.01,0 26.86,4.53 35.48,13.65 8.63,9.12 12.94,21.63 12.94,37.45l0 95.99 -19.66 0 0 -88.13c0,-13.86 -2.84,-24.35 -8.57,-31.39 -5.67,-7.05 -14.19,-10.54 -25.49,-10.54 -13.54,0 -23.47,4.42 -29.81,13.26 -6.33,8.85 -9.5,22.87 -9.5,42.1l0 74.69 -19.66 0 0 -88.13c0,-14.53 -2.72,-25.11 -8.13,-31.83 -5.47,-6.72 -13.87,-10.1 -25.28,-10.1 -13.87,0 -24.03,4.48 -30.52,13.43 -6.5,8.95 -9.77,22.93 -9.77,41.93l0 74.69zm531.29 -87.15c-0.98,-12.98 -5.3,-23.09 -12.93,-30.24 -7.7,-7.15 -18.08,-10.7 -31.24,-10.7 -11.95,0 -21.94,3.72 -29.98,11.19 -8.07,7.48 -12.72,17.37 -14.03,29.75l88.18 0zm23.26 16.71l-112.69 0c0.55,18.35 5.13,32.81 13.76,43.24 8.63,10.49 20.2,15.72 34.73,15.72 10.43,0 19.6,-2.83 27.46,-8.46 7.93,-5.68 14.47,-14.19 19.72,-25.61l18.02 9.94c-7.26,14.35 -16.16,24.89 -26.65,31.66 -10.48,6.77 -23.37,10.16 -38.59,10.16 -20.8,0 -37.62,-6.93 -50.45,-20.86 -12.84,-13.93 -19.28,-32.15 -19.28,-54.76 0,-23.26 6.39,-41.99 19.1,-56.29 12.73,-14.24 29.38,-21.4 49.96,-21.4 19.61,0 35.33,6.55 47.18,19.72 11.84,13.16 17.74,30.74 17.74,52.63l0 4.31z"/>
  <polygon class="fil7" points="1689.95,790.24 1689.95,1691.77 1368.43,1691.77 "/>
  <path class="fil8" d="M2579.64 1691.77l0 -643.01 224.83 643.01 -224.83 0zm-80.5 -873.24l-179.11 0 0 -424.82 30.57 0 148.54 424.82z"/>
  <path class="fil4" d="M2934.62 393.71l371.21 0 0 424.82 -86.51 0 -284.7 -424.82zm111.59 1048.81l0 249.25 -166.06 0 166.06 -249.25z"/>
  <path class="fil9" d="M2934.62 393.71l371.21 0 0 424.82 -86.51 0 -284.7 -424.82zm111.59 1048.81l0 249.25 -166.06 0 166.06 -249.25z"/>
 </g>
</svg>
